<svg width="327" height="291" viewBox="0 0 327 291" fill="none" xmlns="http://www.w3.org/2000/svg">
<g clip-path="url(#clip0_11529_30053)">
<g clip-path="url(#clip1_11529_30053)">
<path d="M300.85 0.75H5.75C2.98858 0.75 0.75 2.98858 0.75 5.75V203.05C0.75 205.811 2.98858 208.05 5.75 208.05H300.85C303.611 208.05 305.85 205.811 305.85 203.05V5.75C305.85 2.98858 303.611 0.75 300.85 0.75Z" fill="#466CBE" stroke="#BCCEF5" stroke-width="1.5" stroke-linecap="round" stroke-linejoin="round"/>
<path d="M293.35 10.75H13.25C11.8693 10.75 10.75 11.8693 10.75 13.25V164.55C10.75 165.931 11.8693 167.05 13.25 167.05H293.35C294.731 167.05 295.85 165.931 295.85 164.55V13.25C295.85 11.8693 294.731 10.75 293.35 10.75Z" fill="#1B2A4B" stroke="#BCCEF5" stroke-width="1.5" stroke-linecap="round" stroke-linejoin="round"/>
<path d="M0.75 174.99H305.85V203.05C305.85 205.81 303.61 208.05 300.85 208.05H5.75C2.99 208.05 0.75 205.81 0.75 203.05V174.99Z" fill="#36569B" stroke="#BCCEF5" stroke-width="1.5" stroke-linecap="round" stroke-linejoin="round"/>
<path d="M227.57 243.11H77.9902C77.8402 243.11 77.6902 243.14 77.5602 243.21L61.7202 254.84C60.7602 255.3 61.0902 256.74 62.1502 256.74H243.41C244.47 256.74 244.8 255.3 243.84 254.84L228 243.21C227.86 243.14 227.72 243.11 227.57 243.11Z" fill="#223762" stroke="#BCCEF5" stroke-width="1.5" stroke-miterlimit="10"/>
<path d="M190.29 247.11V210.05C190.29 208.95 189.39 208.05 188.29 208.05H115.28V247.11C115.28 248.21 116.18 249.11 117.28 249.11H188.29C189.39 249.11 190.29 248.21 190.29 247.11Z" fill="#223762" stroke="#BCCEF5" stroke-width="1.5" stroke-miterlimit="10"/>
<path d="M53.2002 184.99H13.2002V224.99H53.2002V184.99Z" fill="#1B2A4B" stroke="#D0BAFF" stroke-width="1.5" stroke-linecap="round" stroke-linejoin="round"/>
<path d="M101.48 190.326L61.6323 193.812L65.1186 233.66L104.966 230.174L101.48 190.326Z" fill="#1B2A4B" stroke="#F6C04C" stroke-width="1.5" stroke-linecap="round" stroke-linejoin="round"/>
<path d="M26.2002 23.8999H45.6802" stroke="#466CBE" stroke-width="1.5" stroke-linecap="round" stroke-linejoin="round"/>
<path d="M49.6802 23.8999H58.7602" stroke="#BCCEF5" stroke-width="1.5" stroke-linecap="round" stroke-linejoin="round"/>
<path d="M53.2402 63.8999H67.0002" stroke="#BCCEF5" stroke-width="1.5" stroke-linecap="round" stroke-linejoin="round"/>
<path d="M72 63.8999H87.77" stroke="#FFDBEA" stroke-width="1.5" stroke-linecap="round" stroke-linejoin="round"/>
<path d="M23.6502 21.4399L21.2002 23.8999L23.6502 26.3599" stroke="#F1F5FE" stroke-width="1.5" stroke-linecap="round" stroke-linejoin="round"/>
<path d="M26.2002 33.8999H273.35" stroke="#BFE3E3" stroke-width="1.5" stroke-linecap="round" stroke-linejoin="round"/>
<path d="M23.6502 31.4399L21.2002 33.8999L23.6502 36.3599" stroke="#BFE3E3" stroke-width="1.5" stroke-linecap="round" stroke-linejoin="round"/>
<path d="M277.89 36.3599L280.35 33.8999L277.89 31.4399" stroke="#BFE3E3" stroke-width="1.5" stroke-linecap="round" stroke-linejoin="round"/>
<path d="M26.2002 43.8999H254.35" stroke="#BFE3E3" stroke-width="1.5" stroke-linecap="round" stroke-linejoin="round"/>
<path d="M23.6502 41.4399L21.2002 43.8999L23.6502 46.3599" stroke="#BFE3E3" stroke-width="1.5" stroke-linecap="round" stroke-linejoin="round"/>
<path d="M256.89 46.3599L259.35 43.8999L256.89 41.4399" stroke="#BFE3E3" stroke-width="1.5" stroke-linecap="round" stroke-linejoin="round"/>
<path d="M61.2998 26.3599L63.7598 23.8999L61.2998 21.4399" stroke="#F1F5FE" stroke-width="1.5" stroke-linecap="round" stroke-linejoin="round"/>
<path d="M26.2002 53.8999H38.2402" stroke="#466CBE" stroke-width="1.5" stroke-linecap="round" stroke-linejoin="round"/>
<path d="M23.6502 51.4399L21.2002 53.8999L23.6502 56.3599" stroke="#F1F5FE" stroke-width="1.5" stroke-linecap="round" stroke-linejoin="round"/>
<path d="M40.7798 56.3599L43.2398 53.8999L40.7798 51.4399" stroke="#F1F5FE" stroke-width="1.5" stroke-linecap="round" stroke-linejoin="round"/>
<path d="M31.77 143.9H43.81" stroke="#466CBE" stroke-width="1.5" stroke-linecap="round" stroke-linejoin="round"/>
<path d="M23.6502 141.44L21.2002 143.9L23.6502 146.36" stroke="#F1F5FE" stroke-width="1.5" stroke-linecap="round" stroke-linejoin="round"/>
<path d="M46.3599 146.36L48.8099 143.9L46.3599 141.44" stroke="#F1F5FE" stroke-width="1.5" stroke-linecap="round" stroke-linejoin="round"/>
<path d="M36.2002 63.8999H48.2402" stroke="#466CBE" stroke-width="1.5" stroke-linecap="round" stroke-linejoin="round"/>
<path d="M33.6502 61.4399L31.2002 63.8999L33.6502 66.3599" stroke="#F1F5FE" stroke-width="1.5" stroke-linecap="round" stroke-linejoin="round"/>
<path d="M95.6201 66.3599L98.0801 63.8999L95.6201 61.4399" stroke="#F1F5FE" stroke-width="1.5" stroke-linecap="round" stroke-linejoin="round"/>
<path d="M53.2402 73.8999H75.4202" stroke="#BCCEF5" stroke-width="1.5" stroke-linecap="round" stroke-linejoin="round"/>
<path d="M119.62 73.8999H140.27" stroke="#BCCEF5" stroke-width="1.5" stroke-linecap="round" stroke-linejoin="round"/>
<path d="M80.4199 73.8999H114.62" stroke="#FFDBEA" stroke-width="1.5" stroke-linecap="round" stroke-linejoin="round"/>
<path d="M145.27 73.8999H210.43" stroke="#FFDBEA" stroke-width="1.5" stroke-linecap="round" stroke-linejoin="round"/>
<path d="M36.2002 73.8999H48.2402" stroke="#466CBE" stroke-width="1.5" stroke-linecap="round" stroke-linejoin="round"/>
<path d="M33.6502 71.4399L31.2002 73.8999L33.6502 76.3599" stroke="#F1F5FE" stroke-width="1.5" stroke-linecap="round" stroke-linejoin="round"/>
<path d="M53.2402 83.8999H75.4202" stroke="#BCCEF5" stroke-width="1.5" stroke-linecap="round" stroke-linejoin="round"/>
<path d="M129.17 83.8999H145.63" stroke="#BCCEF5" stroke-width="1.5" stroke-linecap="round" stroke-linejoin="round"/>
<path d="M80.4199 83.8999H124.17" stroke="#FFDBEA" stroke-width="1.5" stroke-linecap="round" stroke-linejoin="round"/>
<path d="M150.63 83.8999H172.27" stroke="#FFDBEA" stroke-width="1.5" stroke-linecap="round" stroke-linejoin="round"/>
<path d="M36.2002 83.8999H48.2402" stroke="#466CBE" stroke-width="1.5" stroke-linecap="round" stroke-linejoin="round"/>
<path d="M33.6502 81.4399L31.2002 83.8999L33.6502 86.3599" stroke="#F1F5FE" stroke-width="1.5" stroke-linecap="round" stroke-linejoin="round"/>
<path d="M174.81 86.3599L177.27 83.8999L174.81 81.4399" stroke="#F1F5FE" stroke-width="1.5" stroke-linecap="round" stroke-linejoin="round"/>
<path d="M53.2402 93.8999H59.3302" stroke="#BCCEF5" stroke-width="1.5" stroke-linecap="round" stroke-linejoin="round"/>
<path d="M93.27 93.8999H112.12" stroke="#BCCEF5" stroke-width="1.5" stroke-linecap="round" stroke-linejoin="round"/>
<path d="M64.3301 93.8999H88.2701" stroke="#FFDBEA" stroke-width="1.5" stroke-linecap="round" stroke-linejoin="round"/>
<path d="M117.12 93.8999H213.4" stroke="#FFDBEA" stroke-width="1.5" stroke-linecap="round" stroke-linejoin="round"/>
<path d="M36.2002 93.8999H48.2402" stroke="#466CBE" stroke-width="1.5" stroke-linecap="round" stroke-linejoin="round"/>
<path d="M33.6502 91.4399L31.2002 93.8999L33.6502 96.3599" stroke="#F1F5FE" stroke-width="1.5" stroke-linecap="round" stroke-linejoin="round"/>
<path d="M215.94 96.3599L218.4 93.8999L215.94 91.4399" stroke="#F1F5FE" stroke-width="1.5" stroke-linecap="round" stroke-linejoin="round"/>
<path d="M53.2402 103.9H59.3302" stroke="#BCCEF5" stroke-width="1.5" stroke-linecap="round" stroke-linejoin="round"/>
<path d="M85.4199 103.9H96.2699" stroke="#BCCEF5" stroke-width="1.5" stroke-linecap="round" stroke-linejoin="round"/>
<path d="M90.4199 113.9H101.27" stroke="#BCCEF5" stroke-width="1.5" stroke-linecap="round" stroke-linejoin="round"/>
<path d="M64.3301 103.9H80.4201" stroke="#FFDBEA" stroke-width="1.5" stroke-linecap="round" stroke-linejoin="round"/>
<path d="M101.27 103.9H249.35" stroke="#FFDBEA" stroke-width="1.5" stroke-linecap="round" stroke-linejoin="round"/>
<path d="M36.2002 103.9H48.2402" stroke="#466CBE" stroke-width="1.5" stroke-linecap="round" stroke-linejoin="round"/>
<path d="M33.6502 101.44L31.2002 103.9L33.6502 106.36" stroke="#F1F5FE" stroke-width="1.5" stroke-linecap="round" stroke-linejoin="round"/>
<path d="M93.17 61.55L90.77 66.3601" stroke="#F1F5FE" stroke-width="1.5" stroke-linecap="round" stroke-linejoin="round"/>
<path d="M218.29 76.3599L220.75 73.8999L218.29 71.4399" stroke="#F1F5FE" stroke-width="1.5" stroke-linecap="round" stroke-linejoin="round"/>
<path d="M215.83 71.55L213.43 76.36" stroke="#F1F5FE" stroke-width="1.5" stroke-linecap="round" stroke-linejoin="round"/>
<path d="M257.2 106.36L259.66 103.9L257.2 101.44" stroke="#F1F5FE" stroke-width="1.5" stroke-linecap="round" stroke-linejoin="round"/>
<path d="M254.75 101.55L252.35 106.36" stroke="#F1F5FE" stroke-width="1.5" stroke-linecap="round" stroke-linejoin="round"/>
<path d="M53.2402 113.9H59.3302" stroke="#BCCEF5" stroke-width="1.5" stroke-linecap="round" stroke-linejoin="round"/>
<path d="M64.3301 113.9H85.4201" stroke="#FFDBEA" stroke-width="1.5" stroke-linecap="round" stroke-linejoin="round"/>
<path d="M106.27 113.9H177.44" stroke="#FFDBEA" stroke-width="1.5" stroke-linecap="round" stroke-linejoin="round"/>
<path d="M36.2002 113.9H48.2402" stroke="#466CBE" stroke-width="1.5" stroke-linecap="round" stroke-linejoin="round"/>
<path d="M33.6502 111.44L31.2002 113.9L33.6502 116.36" stroke="#F1F5FE" stroke-width="1.5" stroke-linecap="round" stroke-linejoin="round"/>
<path d="M185.3 116.36L187.76 113.9L185.3 111.44" stroke="#F1F5FE" stroke-width="1.5" stroke-linecap="round" stroke-linejoin="round"/>
<path d="M182.85 111.55L180.44 116.36" stroke="#F1F5FE" stroke-width="1.5" stroke-linecap="round" stroke-linejoin="round"/>
<path d="M53.2402 123.9H59.3302" stroke="#BCCEF5" stroke-width="1.5" stroke-linecap="round" stroke-linejoin="round"/>
<path d="M87.8398 123.9H98.6898" stroke="#BCCEF5" stroke-width="1.5" stroke-linecap="round" stroke-linejoin="round"/>
<path d="M64.3301 123.9H82.8401" stroke="#FFDBEA" stroke-width="1.5" stroke-linecap="round" stroke-linejoin="round"/>
<path d="M103.69 123.9H162.57" stroke="#FFDBEA" stroke-width="1.5" stroke-linecap="round" stroke-linejoin="round"/>
<path d="M36.2002 123.9H48.2402" stroke="#466CBE" stroke-width="1.5" stroke-linecap="round" stroke-linejoin="round"/>
<path d="M33.6502 121.44L31.2002 123.9L33.6502 126.36" stroke="#F1F5FE" stroke-width="1.5" stroke-linecap="round" stroke-linejoin="round"/>
<path d="M165.22 126.36L167.68 123.9L165.22 121.44" stroke="#F1F5FE" stroke-width="1.5" stroke-linecap="round" stroke-linejoin="round"/>
<path d="M53.2402 133.9H62.6102" stroke="#BCCEF5" stroke-width="1.5" stroke-linecap="round" stroke-linejoin="round"/>
<path d="M87.8398 133.9H107.5" stroke="#BCCEF5" stroke-width="1.5" stroke-linecap="round" stroke-linejoin="round"/>
<path d="M67.6099 133.9H82.8399" stroke="#FFDBEA" stroke-width="1.5" stroke-linecap="round" stroke-linejoin="round"/>
<path d="M112.5 133.9H275.54" stroke="#FFDBEA" stroke-width="1.5" stroke-linecap="round" stroke-linejoin="round"/>
<path d="M36.2002 133.9H48.2402" stroke="#466CBE" stroke-width="1.5" stroke-linecap="round" stroke-linejoin="round"/>
<path d="M33.6502 131.44L31.2002 133.9L33.6502 136.36" stroke="#F1F5FE" stroke-width="1.5" stroke-linecap="round" stroke-linejoin="round"/>
<path d="M285.39 136.36L287.85 133.9L285.39 131.44" stroke="#F1F5FE" stroke-width="1.5" stroke-linecap="round" stroke-linejoin="round"/>
<path d="M282.94 131.55L280.54 136.36" stroke="#F1F5FE" stroke-width="1.5" stroke-linecap="round" stroke-linejoin="round"/>
<path d="M26.3599 146.25L28.7699 141.44" stroke="#F1F5FE" stroke-width="1.5" stroke-linecap="round" stroke-linejoin="round"/>
<path d="M31.77 153.9H43.81" stroke="#466CBE" stroke-width="1.5" stroke-linecap="round" stroke-linejoin="round"/>
<path d="M23.6502 151.44L21.2002 153.9L23.6502 156.36" stroke="#F1F5FE" stroke-width="1.5" stroke-linecap="round" stroke-linejoin="round"/>
<path d="M46.3599 156.36L48.8099 153.9L46.3599 151.44" stroke="#F1F5FE" stroke-width="1.5" stroke-linecap="round" stroke-linejoin="round"/>
<path d="M26.3599 156.25L28.7699 151.44" stroke="#F1F5FE" stroke-width="1.5" stroke-linecap="round" stroke-linejoin="round"/>
<path d="M93.1814 198.066L70.5977 200.042L71.3193 208.29L93.903 206.314L93.1814 198.066Z" stroke="#FFD375" stroke-width="1.5" stroke-linecap="round" stroke-linejoin="round"/>
<path d="M80.3457 216.42L72.0972 217.142L72.8188 225.39L81.0673 224.668L80.3457 216.42Z" stroke="#FFD375" stroke-width="1.5" stroke-linecap="round" stroke-linejoin="round"/>
<path d="M90.91 224.36C93.5057 224.36 95.61 222.256 95.61 219.66C95.61 217.064 93.5057 214.96 90.91 214.96C88.3142 214.96 86.21 217.064 86.21 219.66C86.21 222.256 88.3142 224.36 90.91 224.36Z" stroke="#FFD375" stroke-width="1.5" stroke-linecap="round" stroke-linejoin="round"/>
<path d="M76.2201 216.79L75.8301 212.36L90.1601 211.11L90.5001 214.98" stroke="#FFD375" stroke-width="1.5" stroke-linecap="round" stroke-linejoin="round"/>
<path d="M82.6099 207.31L82.9999 211.73" stroke="#FFD375" stroke-width="1.5" stroke-linecap="round" stroke-linejoin="round"/>
<path d="M323.82 267.9C328.96 277.9 325.27 287.43 315.58 289.18C305.89 290.93 293.86 284.25 288.71 274.25C283.57 264.25 287.26 254.72 296.95 252.97C306.64 251.22 318.67 257.9 323.82 267.9Z" fill="#36569B" stroke="#BCCEF5" stroke-width="1.5" stroke-linecap="round" stroke-linejoin="round"/>
<path d="M286.83 269.16C286.83 269.16 291.51 263.51 301.45 261.71C311.38 259.91 320.59 263.05 320.59 263.05" stroke="#BCCEF5" stroke-width="1.5" stroke-linecap="round" stroke-linejoin="round"/>
<path d="M26.2002 198.99L20.2002 204.99L26.2002 210.99" stroke="#E7DCFF" stroke-width="1.5" stroke-linecap="round" stroke-linejoin="round"/>
<path d="M40.2002 210.99L46.2002 204.99L40.2002 198.99" stroke="#E7DCFF" stroke-width="1.5" stroke-linecap="round" stroke-linejoin="round"/>
<path d="M36.2002 198.99L30.2002 210.99" stroke="#E7DCFF" stroke-width="1.5" stroke-linecap="round" stroke-linejoin="round"/>
<path d="M285.59 187.12L245.742 183.634L242.255 223.482L282.103 226.968L285.59 187.12Z" fill="#1B2A4B" stroke="#86C8CB" stroke-width="1.5" stroke-linecap="round" stroke-linejoin="round"/>
<path d="M263.92 218.3C271.1 218.3 276.92 212.48 276.92 205.3C276.92 198.12 271.1 192.3 263.92 192.3C256.74 192.3 250.92 198.12 250.92 205.3C250.92 212.48 256.74 218.3 263.92 218.3Z" stroke="#BFE3E3" stroke-width="1.5" stroke-linecap="round" stroke-linejoin="round"/>
<path d="M270.516 205.874C271.141 198.722 268.696 192.665 265.054 192.347C261.412 192.028 257.952 197.568 257.326 204.72C256.7 211.873 259.145 217.929 262.788 218.248C266.43 218.567 269.89 213.027 270.516 205.874Z" stroke="#BFE3E3" stroke-width="1.5" stroke-linecap="round" stroke-linejoin="round"/>
<path d="M265.05 192.35L262.79 218.25" stroke="#BFE3E3" stroke-width="1.5" stroke-linecap="round" stroke-linejoin="round"/>
<path d="M252.09 199.91L276.51 202.05" stroke="#BFE3E3" stroke-width="1.5" stroke-linecap="round" stroke-linejoin="round"/>
<path d="M251.33 208.55L275.75 210.68" stroke="#BFE3E3" stroke-width="1.5" stroke-linecap="round" stroke-linejoin="round"/>
</g>
</g>
<defs>
<clipPath id="clip0_11529_30053">
<rect width="326.89" height="290.21" fill="white"/>
</clipPath>
<clipPath id="clip1_11529_30053">
<rect width="326.89" height="290.21" fill="white"/>
</clipPath>
</defs>
</svg>
